<svg width="1461" height="1024" viewBox="0 0 1461 1024" fill="none" xmlns="http://www.w3.org/2000/svg">
<rect x="1" y="1" width="72" height="72" fill="black"/>
<rect x="585" y="1" width="72" height="72" fill="black"/>
<rect x="293" y="1" width="72" height="72" fill="black"/>
<rect x="877" y="1" width="72" height="72" fill="black"/>
<rect x="1169" y="1" width="72" height="72" fill="black"/>
<rect x="147" y="1" width="72" height="72" fill="black"/>
<rect x="731" y="1" width="72" height="72" fill="black"/>
<rect x="439" y="1" width="72" height="72" fill="black"/>
<rect x="1023" y="1" width="72" height="72" fill="black"/>
<rect x="1315" y="1" width="72" height="72" fill="black"/>
<rect x="74" y="1" width="72" height="72" fill="black"/>
<rect x="658" y="1" width="72" height="72" fill="black"/>
<rect x="366" y="1" width="72" height="72" fill="black"/>
<rect x="950" y="1" width="72" height="72" fill="black"/>
<rect x="1242" y="1" width="72" height="72" fill="black"/>
<rect x="220" y="1" width="72" height="72" fill="black"/>
<rect x="804" y="1" width="72" height="72" fill="black"/>
<rect x="512" y="1" width="72" height="72" fill="black"/>
<rect x="1096" y="1" width="72" height="72" fill="black"/>
<rect x="1388" y="1" width="72" height="72" fill="black"/>
<rect x="1" y="293" width="72" height="72" fill="black"/>
<rect x="585" y="293" width="72" height="72" fill="black"/>
<rect x="293" y="293" width="72" height="72" fill="black"/>
<rect x="877" y="293" width="72" height="72" fill="black"/>
<rect x="1169" y="293" width="72" height="72" fill="black"/>
<rect x="147" y="293" width="72" height="72" fill="black"/>
<rect x="731" y="293" width="72" height="72" fill="black"/>
<rect x="439" y="293" width="72" height="72" fill="black"/>
<rect x="1023" y="293" width="72" height="72" fill="black"/>
<rect x="1315" y="293" width="72" height="72" fill="black"/>
<rect x="74" y="293" width="72" height="72" fill="black"/>
<rect x="658" y="293" width="72" height="72" fill="black"/>
<rect x="366" y="293" width="72" height="72" fill="black"/>
<rect x="950" y="293" width="72" height="72" fill="black"/>
<rect x="1242" y="293" width="72" height="72" fill="black"/>
<rect x="220" y="293" width="72" height="72" fill="black"/>
<rect x="804" y="293" width="72" height="72" fill="black"/>
<rect x="512" y="293" width="72" height="72" fill="black"/>
<rect x="1096" y="293" width="72" height="72" fill="black"/>
<rect x="1388" y="293" width="72" height="72" fill="black"/>
<rect x="1" y="804" width="72" height="72" fill="black"/>
<rect x="585" y="804" width="72" height="72" fill="black"/>
<rect x="293" y="804" width="72" height="72" fill="black"/>
<rect x="877" y="804" width="72" height="72" fill="black"/>
<rect x="1169" y="804" width="72" height="72" fill="black"/>
<rect x="147" y="804" width="72" height="72" fill="black"/>
<rect x="731" y="804" width="72" height="72" fill="black"/>
<rect x="439" y="804" width="72" height="72" fill="black"/>
<rect x="1023" y="804" width="72" height="72" fill="black"/>
<rect x="1315" y="804" width="72" height="72" fill="black"/>
<rect x="74" y="804" width="72" height="72" fill="black"/>
<rect x="658" y="804" width="72" height="72" fill="black"/>
<rect x="366" y="804" width="72" height="72" fill="black"/>
<rect x="950" y="804" width="72" height="72" fill="black"/>
<rect x="1242" y="804" width="72" height="72" fill="black"/>
<rect x="220" y="804" width="72" height="72" fill="black"/>
<rect x="804" y="804" width="72" height="72" fill="black"/>
<rect x="512" y="804" width="72" height="72" fill="black"/>
<rect x="1096" y="804" width="72" height="72" fill="black"/>
<rect x="1388" y="804" width="72" height="72" fill="black"/>
<rect x="1" y="147" width="72" height="72" fill="black"/>
<rect x="585" y="147" width="72" height="72" fill="black"/>
<rect x="293" y="147" width="72" height="72" fill="black"/>
<rect x="877" y="147" width="72" height="72" fill="black"/>
<rect x="1169" y="147" width="72" height="72" fill="black"/>
<rect x="147" y="147" width="72" height="72" fill="black"/>
<rect x="731" y="147" width="72" height="72" fill="black"/>
<rect x="439" y="147" width="72" height="72" fill="black"/>
<rect x="1023" y="147" width="72" height="72" fill="black"/>
<rect x="1315" y="147" width="72" height="72" fill="black"/>
<rect x="74" y="147" width="72" height="72" fill="black"/>
<rect x="658" y="147" width="72" height="72" fill="black"/>
<rect x="366" y="147" width="72" height="72" fill="black"/>
<rect x="950" y="147" width="72" height="72" fill="black"/>
<rect x="1242" y="147" width="72" height="72" fill="black"/>
<rect x="220" y="147" width="72" height="72" fill="black"/>
<rect x="804" y="147" width="72" height="72" fill="black"/>
<rect x="512" y="147" width="72" height="72" fill="black"/>
<rect x="1096" y="147" width="72" height="72" fill="black"/>
<rect x="1388" y="147" width="72" height="72" fill="black"/>
<rect x="1" y="658" width="72" height="72" fill="black"/>
<rect x="585" y="658" width="72" height="72" fill="black"/>
<rect x="293" y="658" width="72" height="72" fill="black"/>
<rect x="877" y="658" width="72" height="72" fill="black"/>
<rect x="1169" y="658" width="72" height="72" fill="black"/>
<rect x="147" y="658" width="72" height="72" fill="black"/>
<rect x="731" y="658" width="72" height="72" fill="black"/>
<rect x="439" y="658" width="72" height="72" fill="black"/>
<rect x="1023" y="658" width="72" height="72" fill="black"/>
<rect x="1315" y="658" width="72" height="72" fill="black"/>
<rect x="74" y="658" width="72" height="72" fill="black"/>
<rect x="658" y="658" width="72" height="72" fill="black"/>
<rect x="366" y="658" width="72" height="72" fill="black"/>
<rect x="950" y="658" width="72" height="72" fill="black"/>
<rect x="1242" y="658" width="72" height="72" fill="black"/>
<rect x="220" y="658" width="72" height="72" fill="black"/>
<rect x="804" y="658" width="72" height="72" fill="black"/>
<rect x="512" y="658" width="72" height="72" fill="black"/>
<rect x="1096" y="658" width="72" height="72" fill="black"/>
<rect x="1388" y="658" width="72" height="72" fill="black"/>
<rect x="1" y="439" width="72" height="72" fill="black"/>
<rect x="585" y="439" width="72" height="72" fill="black"/>
<rect x="293" y="439" width="72" height="72" fill="black"/>
<rect x="877" y="439" width="72" height="72" fill="black"/>
<rect x="1169" y="439" width="72" height="72" fill="black"/>
<rect x="147" y="439" width="72" height="72" fill="black"/>
<rect x="731" y="439" width="72" height="72" fill="black"/>
<rect x="439" y="439" width="72" height="72" fill="black"/>
<rect x="1023" y="439" width="72" height="72" fill="black"/>
<rect x="1315" y="439" width="72" height="72" fill="black"/>
<rect x="74" y="439" width="72" height="72" fill="black"/>
<rect x="658" y="439" width="72" height="72" fill="black"/>
<rect x="366" y="439" width="72" height="72" fill="black"/>
<rect x="950" y="439" width="72" height="72" fill="black"/>
<rect x="1242" y="439" width="72" height="72" fill="black"/>
<rect x="220" y="439" width="72" height="72" fill="black"/>
<rect x="804" y="439" width="72" height="72" fill="black"/>
<rect x="512" y="439" width="72" height="72" fill="black"/>
<rect x="1096" y="439" width="72" height="72" fill="black"/>
<rect x="1388" y="439" width="72" height="72" fill="black"/>
<rect x="1" y="950" width="72" height="72" fill="black"/>
<rect x="585" y="950" width="72" height="72" fill="black"/>
<rect x="293" y="950" width="72" height="72" fill="black"/>
<rect x="877" y="950" width="72" height="72" fill="black"/>
<rect x="1169" y="950" width="72" height="72" fill="black"/>
<rect x="147" y="950" width="72" height="72" fill="black"/>
<rect x="731" y="950" width="72" height="72" fill="black"/>
<rect x="439" y="950" width="72" height="72" fill="black"/>
<rect x="1023" y="950" width="72" height="72" fill="black"/>
<rect x="1315" y="950" width="72" height="72" fill="black"/>
<rect x="74" y="950" width="72" height="72" fill="black"/>
<rect x="658" y="950" width="72" height="72" fill="black"/>
<rect x="366" y="950" width="72" height="72" fill="black"/>
<rect x="950" y="950" width="72" height="72" fill="black"/>
<rect x="1242" y="950" width="72" height="72" fill="black"/>
<rect x="220" y="950" width="72" height="72" fill="black"/>
<rect x="804" y="950" width="72" height="72" fill="black"/>
<rect x="512" y="950" width="72" height="72" fill="black"/>
<rect x="1096" y="950" width="72" height="72" fill="black"/>
<rect x="1388" y="950" width="72" height="72" fill="black"/>
<rect x="1" y="74" width="72" height="72" fill="black"/>
<rect x="585" y="74" width="72" height="72" fill="black"/>
<rect x="293" y="74" width="72" height="72" fill="black"/>
<rect x="877" y="74" width="72" height="72" fill="black"/>
<rect x="1169" y="74" width="72" height="72" fill="black"/>
<rect x="147" y="74" width="72" height="72" fill="black"/>
<rect x="731" y="74" width="72" height="72" fill="black"/>
<rect x="439" y="74" width="72" height="72" fill="black"/>
<rect x="1023" y="74" width="72" height="72" fill="black"/>
<rect x="1315" y="74" width="72" height="72" fill="black"/>
<rect x="74" y="74" width="72" height="72" fill="black"/>
<rect x="658" y="74" width="72" height="72" fill="black"/>
<rect x="366" y="74" width="72" height="72" fill="black"/>
<rect x="950" y="74" width="72" height="72" fill="black"/>
<rect x="1242" y="74" width="72" height="72" fill="black"/>
<rect x="220" y="74" width="72" height="72" fill="black"/>
<rect x="804" y="74" width="72" height="72" fill="black"/>
<rect x="512" y="74" width="72" height="72" fill="black"/>
<rect x="1096" y="74" width="72" height="72" fill="black"/>
<rect x="1388" y="74" width="72" height="72" fill="black"/>
<rect x="1" y="585" width="72" height="72" fill="black"/>
<rect x="585" y="585" width="72" height="72" fill="black"/>
<rect x="293" y="585" width="72" height="72" fill="black"/>
<rect x="877" y="585" width="72" height="72" fill="black"/>
<rect x="1169" y="585" width="72" height="72" fill="black"/>
<rect x="147" y="585" width="72" height="72" fill="black"/>
<rect x="731" y="585" width="72" height="72" fill="black"/>
<rect x="439" y="585" width="72" height="72" fill="black"/>
<rect x="1023" y="585" width="72" height="72" fill="black"/>
<rect x="1315" y="585" width="72" height="72" fill="black"/>
<rect x="74" y="585" width="72" height="72" fill="black"/>
<rect x="658" y="585" width="72" height="72" fill="black"/>
<rect x="366" y="585" width="72" height="72" fill="black"/>
<rect x="950" y="585" width="72" height="72" fill="black"/>
<rect x="1242" y="585" width="72" height="72" fill="black"/>
<rect x="220" y="585" width="72" height="72" fill="black"/>
<rect x="804" y="585" width="72" height="72" fill="black"/>
<rect x="512" y="585" width="72" height="72" fill="black"/>
<rect x="1096" y="585" width="72" height="72" fill="black"/>
<rect x="1388" y="585" width="72" height="72" fill="black"/>
<rect x="1" y="366" width="72" height="72" fill="black"/>
<rect x="585" y="366" width="72" height="72" fill="black"/>
<rect x="293" y="366" width="72" height="72" fill="black"/>
<rect x="877" y="366" width="72" height="72" fill="black"/>
<rect x="1169" y="366" width="72" height="72" fill="black"/>
<rect x="147" y="366" width="72" height="72" fill="black"/>
<rect x="731" y="366" width="72" height="72" fill="black"/>
<rect x="439" y="366" width="72" height="72" fill="black"/>
<rect x="1023" y="366" width="72" height="72" fill="black"/>
<rect x="1315" y="366" width="72" height="72" fill="black"/>
<rect x="74" y="366" width="72" height="72" fill="black"/>
<rect x="658" y="366" width="72" height="72" fill="black"/>
<rect x="366" y="366" width="72" height="72" fill="black"/>
<rect x="950" y="366" width="72" height="72" fill="black"/>
<rect x="1242" y="366" width="72" height="72" fill="black"/>
<rect x="220" y="366" width="72" height="72" fill="black"/>
<rect x="804" y="366" width="72" height="72" fill="black"/>
<rect x="512" y="366" width="72" height="72" fill="black"/>
<rect x="1096" y="366" width="72" height="72" fill="black"/>
<rect x="1388" y="366" width="72" height="72" fill="black"/>
<rect x="1" y="877" width="72" height="72" fill="black"/>
<rect x="585" y="877" width="72" height="72" fill="black"/>
<rect x="293" y="877" width="72" height="72" fill="black"/>
<rect x="877" y="877" width="72" height="72" fill="black"/>
<rect x="1169" y="877" width="72" height="72" fill="black"/>
<rect x="147" y="877" width="72" height="72" fill="black"/>
<rect x="731" y="877" width="72" height="72" fill="black"/>
<rect x="439" y="877" width="72" height="72" fill="black"/>
<rect x="1023" y="877" width="72" height="72" fill="black"/>
<rect x="1315" y="877" width="72" height="72" fill="black"/>
<rect x="74" y="877" width="72" height="72" fill="black"/>
<rect x="658" y="877" width="72" height="72" fill="black"/>
<rect x="366" y="877" width="72" height="72" fill="black"/>
<rect x="950" y="877" width="72" height="72" fill="black"/>
<rect x="1242" y="877" width="72" height="72" fill="black"/>
<rect x="220" y="877" width="72" height="72" fill="black"/>
<rect x="804" y="877" width="72" height="72" fill="black"/>
<rect x="512" y="877" width="72" height="72" fill="black"/>
<rect x="1096" y="877" width="72" height="72" fill="black"/>
<rect x="1388" y="877" width="72" height="72" fill="black"/>
<rect x="1" y="220" width="72" height="72" fill="black"/>
<rect x="585" y="220" width="72" height="72" fill="black"/>
<rect x="293" y="220" width="72" height="72" fill="black"/>
<rect x="877" y="220" width="72" height="72" fill="black"/>
<rect x="1169" y="220" width="72" height="72" fill="black"/>
<rect x="147" y="220" width="72" height="72" fill="black"/>
<rect x="731" y="220" width="72" height="72" fill="black"/>
<rect x="439" y="220" width="72" height="72" fill="black"/>
<rect x="1023" y="220" width="72" height="72" fill="black"/>
<rect x="1315" y="220" width="72" height="72" fill="black"/>
<rect x="74" y="220" width="72" height="72" fill="black"/>
<rect x="658" y="220" width="72" height="72" fill="black"/>
<rect x="366" y="220" width="72" height="72" fill="black"/>
<rect x="950" y="220" width="72" height="72" fill="black"/>
<rect x="1242" y="220" width="72" height="72" fill="black"/>
<rect x="220" y="220" width="72" height="72" fill="black"/>
<rect x="804" y="220" width="72" height="72" fill="black"/>
<rect x="512" y="220" width="72" height="72" fill="black"/>
<rect x="1096" y="220" width="72" height="72" fill="black"/>
<rect x="1388" y="220" width="72" height="72" fill="black"/>
<rect x="1" y="731" width="72" height="72" fill="black"/>
<rect x="585" y="731" width="72" height="72" fill="black"/>
<rect x="293" y="731" width="72" height="72" fill="black"/>
<rect x="877" y="731" width="72" height="72" fill="black"/>
<rect x="1169" y="731" width="72" height="72" fill="black"/>
<rect x="147" y="731" width="72" height="72" fill="black"/>
<rect x="731" y="731" width="72" height="72" fill="black"/>
<rect x="439" y="731" width="72" height="72" fill="black"/>
<rect x="1023" y="731" width="72" height="72" fill="black"/>
<rect x="1315" y="731" width="72" height="72" fill="black"/>
<rect x="74" y="731" width="72" height="72" fill="black"/>
<rect x="658" y="731" width="72" height="72" fill="black"/>
<rect x="366" y="731" width="72" height="72" fill="black"/>
<rect x="950" y="731" width="72" height="72" fill="black"/>
<rect x="1242" y="731" width="72" height="72" fill="black"/>
<rect x="220" y="731" width="72" height="72" fill="black"/>
<rect x="804" y="731" width="72" height="72" fill="black"/>
<rect x="512" y="731" width="72" height="72" fill="black"/>
<rect x="1096" y="731" width="72" height="72" fill="black"/>
<rect x="1388" y="731" width="72" height="72" fill="black"/>
<rect x="1" y="512" width="72" height="72" fill="black"/>
<rect x="585" y="512" width="72" height="72" fill="black"/>
<rect x="293" y="512" width="72" height="72" fill="black"/>
<rect x="877" y="512" width="72" height="72" fill="black"/>
<rect x="1169" y="512" width="72" height="72" fill="black"/>
<rect x="147" y="512" width="72" height="72" fill="black"/>
<rect x="731" y="512" width="72" height="72" fill="black"/>
<rect x="439" y="512" width="72" height="72" fill="black"/>
<rect x="1023" y="512" width="72" height="72" fill="black"/>
<rect x="1315" y="512" width="72" height="72" fill="black"/>
<rect x="74" y="512" width="72" height="72" fill="black"/>
<rect x="658" y="512" width="72" height="72" fill="black"/>
<rect x="366" y="512" width="72" height="72" fill="black"/>
<rect x="950" y="512" width="72" height="72" fill="black"/>
<rect x="1242" y="512" width="72" height="72" fill="black"/>
<rect x="220" y="512" width="72" height="72" fill="black"/>
<rect x="804" y="512" width="72" height="72" fill="black"/>
<rect x="512" y="512" width="72" height="72" fill="black"/>
<rect x="1096" y="512" width="72" height="72" fill="black"/>
<rect x="1388" y="512" width="72" height="72" fill="black"/>
</svg>
